# xmcd CD database file
#
# Track frame offsets:
#	150
#	16190
#	31160
#	46570
#	62555
#	79440
#	94920
#	112252
#	128165
#	143045
#	160105
#	178545
#	193580
#	209050
#	224590
#	241945
#	260265
#	274410
#	291795
#	307095
#
# Disc length: 4297 seconds
#
# Revision: 5
# Processed by: cddbd v1.5.2PL0 Copyright (c) Steve Scherf et al.
# Submitted via: CDex 1.70beta2
#
DISCID=2a10c714
DTITLE=BRITNEY SPEARS - GREATEST HITS: MY PREROGATIVE
DYEAR=2004
DGENRE=Rock
TTITLE0=My Prerogative
TTITLE1=Toxic
TTITLE2=I'm A Slave 4 U
TTITLE3=Oops!... I Did It Again
TTITLE4=Me Against The Music
TTITLE5=Stronger
TTITLE6=Everytime
TTITLE7=Baby One More Time
TTITLE8=(You Drive Me) Crazy [THE STOP REMIX!]
TTITLE9=Boys [THE CD-ED REMIX]
TTITLE10=Sometimes
TTITLE11=Overprotected
TTITLE12=Lucky
TTITLE13=Outrageous
TTITLE14=Don't Let Me Be The Last To Know
TTITLE15=Born To Make You Happy
TTITLE16=I Love Rock 'N' Roll
TTITLE17=I'm Not A Gigl, Not Yet A Woman
TTITLE18=I've Just Begun (Having My Fun)
TTITLE19=Do Somethin'
EXTD=YEAR: 2004
EXTT0=
EXTT1=
EXTT2=
EXTT3=
EXTT4=
EXTT5=
EXTT6=
EXTT7=
EXTT8=
EXTT9=
EXTT10=
EXTT11=
EXTT12=
EXTT13=
EXTT14=
EXTT15=
EXTT16=
EXTT17=
EXTT18=
EXTT19=
PLAYORDER=
